{
  "source": "C:\\Users\\Peter\\Desktop\\stuff\\MIUN\\quantitative_research\\video_compression\\videos\\UVG\\HoneyBee_1920x1080_120fps_420_8bit_YUV.y4m",
  "output": "C:\\Users\\Peter\\Desktop\\stuff\\MIUN\\quantitative_research\\video_compression\\compressed_videos\\UVG\\h264\\3\\HoneyBee_1920x1080_120fps_420_8bit_YUV_h264.mp4",
  "codec": "h264",
  "ok": "[yuv4mpegpipe @ 0000024304a95e00] Stream #0: not enough frames to estimate rate; consider increasing probesize\nInput #0, yuv4mpegpipe, from 'C:\\Users\\Peter\\Desktop\\stuff\\MIUN\\quantitative_research\\video_compression\\videos\\UVG\\HoneyBee_1920x1080_120fps_420_8bit_YUV.y4m':\n  Duration: 00:00:05.00, start: 0.000000, bitrate: 2985989 kb/s\n  Stream #0:0: Video: rawvideo (I420 / 0x30323449), yuv420p(progressive), 1920x1080, 120 fps, 120 tbr, 120 tbn\n[out#0/mp4 @ 0000024304a9a600] Codec AVOption b:a (set bitrate (in bits/s)) has not been used for any stream. The most likely reason is either wrong type (e.g. a video option with no video streams) or that it is a private option of some decoder which was not actually used for any stream.\nStream mapping:\n  Stream #0:0 -> #0:0 (rawvideo (native) -> h264 (libx264))\nPress [q] to stop, [?] for help\n[libx264 @ 0000024304a9ca80] using cpu capabilities: MMX2 SSE2Fast SSSE3 SSE4.2 AVX FMA3 BMI2 AVX2\n[libx264 @ 0000024304a9ca80] profile High, level 5.1, 4:2:0, 8-bit\n[libx264 @ 0000024304a9ca80] 264 - core 165 r3222 b35605a - H.264/MPEG-4 AVC codec - Copyleft 2003-2025 - http://www.videolan.org/x264.html - options: cabac=1 ref=5 deblock=1:0:0 analyse=0x3:0x113 me=hex subme=8 psy=1 psy_rd=1.00:0.00 mixed_ref=1 me_range=16 chroma_me=1 trellis=2 8x8dct=1 cqm=0 deadzone=21,11 fast_pskip=1 chroma_qp_offset=-2 threads=18 lookahead_threads=3 sliced_threads=0 nr=0 decimate=1 interlaced=0 bluray_compat=0 constrained_intra=0 bframes=3 b_pyramid=2 b_adapt=1 b_bias=0 direct=3 weightb=1 open_gop=0 weightp=2 keyint=250 keyint_min=25 scenecut=40 intra_refresh=0 rc_lookahead=50 rc=cbr mbtree=1 bitrate=3000 ratetol=1.0 qcomp=0.60 qpmin=0 qpmax=69 qpstep=4 vbv_maxrate=3000 vbv_bufsize=3000 nal_hrd=none filler=0 ip_ratio=1.40 aq=1:1.00\nOutput #0, mp4, to 'C:\\Users\\Peter\\Desktop\\stuff\\MIUN\\quantitative_research\\video_compression\\compressed_videos\\UVG\\h264\\3\\HoneyBee_1920x1080_120fps_420_8bit_YUV_h264.mp4':\n  Metadata:\n    encoder         : Lavf62.3.100\n  Stream #0:0: Video: h264 (avc1 / 0x31637661), yuv420p(tv, progressive), 1920x1080, q=2-31, 3000 kb/s, 120 fps, 15360 tbn\n    Metadata:\n      encoder         : Lavc62.11.100 libx264\n    Side data:\n      cpb: bitrate max/min/avg: 3000000/0/3000000 buffer size: 3000000 vbv_delay: N/A\nframe=    0 fps=0.0 q=0.0 size=       0KiB time=N/A bitrate=N/A speed=N/A elapsed=0:00:00.51    \nframe=    0 fps=0.0 q=0.0 size=       0KiB time=N/A bitrate=N/A speed=N/A elapsed=0:00:01.02    \nframe=    0 fps=0.0 q=0.0 size=       0KiB time=N/A bitrate=N/A speed=N/A elapsed=0:00:01.53    \nframe=    8 fps=3.9 q=45.0 size=       0KiB time=00:00:00.05 bitrate=   7.7kbits/s speed=0.0242x elapsed=0:00:02.06    \nframe=   28 fps= 11 q=40.0 size=       0KiB time=00:00:00.21 bitrate=   1.8kbits/s speed=0.0839x elapsed=0:00:02.58    \nframe=   48 fps= 15 q=39.0 size=       0KiB time=00:00:00.38 bitrate=   1.0kbits/s speed=0.123x elapsed=0:00:03.10    \nframe=   68 fps= 19 q=38.0 size=       0KiB time=00:00:00.55 bitrate=   0.7kbits/s speed=0.151x elapsed=0:00:03.63    \nframe=   88 fps= 21 q=37.0 size=       0KiB time=00:00:00.71 bitrate=   0.5kbits/s speed=0.173x elapsed=0:00:04.14    \nframe=  108 fps= 23 q=37.0 size=       0KiB time=00:00:00.88 bitrate=   0.4kbits/s speed=0.189x elapsed=0:00:04.66    \nframe=  128 fps= 25 q=37.0 size=       0KiB time=00:00:01.05 bitrate=   0.4kbits/s speed=0.203x elapsed=0:00:05.18    \nframe=  148 fps= 26 q=37.0 size=       0KiB time=00:00:01.21 bitrate=   0.3kbits/s speed=0.213x elapsed=0:00:05.70    \nframe=  168 fps= 27 q=37.0 size=       0KiB time=00:00:01.38 bitrate=   0.3kbits/s speed=0.222x elapsed=0:00:06.22    \nframe=  192 fps= 28 q=38.0 size=     256KiB time=00:00:01.58 bitrate=1324.8kbits/s speed=0.235x elapsed=0:00:06.74    \nframe=  212 fps= 29 q=38.0 size=     256KiB time=00:00:01.75 bitrate=1198.6kbits/s speed=0.241x elapsed=0:00:07.26    \nframe=  233 fps= 30 q=38.0 size=     256KiB time=00:00:01.92 bitrate=1089.6kbits/s speed=0.248x elapsed=0:00:07.77    \nframe=  242 fps= 29 q=39.0 size=     256KiB time=00:00:02.00 bitrate=1048.8kbits/s speed=0.241x elapsed=0:00:08.29    \nframe=  262 fps= 30 q=38.0 size=     256KiB time=00:00:02.15 bitrate= 975.6kbits/s speed=0.244x elapsed=0:00:08.80    \nframe=  282 fps= 30 q=37.0 size=     256KiB time=00:00:02.33 bitrate= 898.9kbits/s speed=0.25x elapsed=0:00:09.32    \nframe=  302 fps= 31 q=37.0 size=     256KiB time=00:00:02.50 bitrate= 839.0kbits/s speed=0.254x elapsed=0:00:09.85    \nframe=  322 fps= 31 q=37.0 size=     256KiB time=00:00:02.66 bitrate= 786.6kbits/s speed=0.257x elapsed=0:00:10.36    \nframe=  342 fps= 31 q=37.0 size=     256KiB time=00:00:02.83 bitrate= 740.3kbits/s speed=0.26x elapsed=0:00:10.89    \nframe=  366 fps= 32 q=37.0 size=     256KiB time=00:00:03.03 bitrate= 691.5kbits/s speed=0.266x elapsed=0:00:11.41    \nframe=  386 fps= 32 q=37.0 size=     256KiB time=00:00:03.20 bitrate= 655.5kbits/s speed=0.268x elapsed=0:00:11.93    \nframe=  410 fps= 33 q=37.0 size=     256KiB time=00:00:03.38 bitrate= 620.0kbits/s speed=0.272x elapsed=0:00:12.44    \nframe=  430 fps= 33 q=37.0 size=     256KiB time=00:00:03.56 bitrate= 588.1kbits/s speed=0.275x elapsed=0:00:12.96    \nframe=  450 fps= 33 q=38.0 size=     256KiB time=00:00:03.73 bitrate= 561.8kbits/s speed=0.277x elapsed=0:00:13.47    \nframe=  474 fps= 34 q=38.0 size=     256KiB time=00:00:03.93 bitrate= 533.3kbits/s speed=0.281x elapsed=0:00:13.99    \nframe=  483 fps= 33 q=38.0 size=     512KiB time=00:00:04.00 bitrate=1046.5kbits/s speed=0.276x elapsed=0:00:14.52    \nframe=  500 fps= 33 q=39.0 size=     512KiB time=00:00:04.15 bitrate=1010.8kbits/s speed=0.276x elapsed=0:00:15.03    \nframe=  524 fps= 34 q=37.0 size=     512KiB time=00:00:04.34 bitrate= 966.1kbits/s speed=0.279x elapsed=0:00:15.55    \nframe=  554 fps= 34 q=35.0 size=     512KiB time=00:00:04.60 bitrate= 911.9kbits/s speed=0.286x elapsed=0:00:16.08    \nframe=  581 fps= 35 q=29.0 size=     512KiB time=00:00:04.82 bitrate= 869.4kbits/s speed=0.29x elapsed=0:00:16.62    \n[mp4 @ 0000024304a9b700] Starting second pass: moving the moov atom to the beginning of the file\n[out#0/mp4 @ 0000024304a9a600] video:755KiB audio:0KiB subtitle:0KiB other streams:0KiB global headers:0KiB muxing overhead: 1.040531%\nframe=  600 fps= 35 q=-1.0 Lsize=     763KiB time=00:00:04.98 bitrate=1253.8kbits/s speed=0.295x elapsed=0:00:16.91    \n[libx264 @ 0000024304a9ca80] frame I:3     Avg QP:34.31  size: 55837\n[libx264 @ 0000024304a9ca80] frame P:151   Avg QP:32.15  size:  2475\n[libx264 @ 0000024304a9ca80] frame B:446   Avg QP:38.03  size:   518\n[libx264 @ 0000024304a9ca80] consecutive B-frames:  0.8%  0.0%  0.5% 98.7%\n[libx264 @ 0000024304a9ca80] mb I  I16..4: 29.6% 66.3%  4.1%\n[libx264 @ 0000024304a9ca80] mb P  I16..4:  0.0%  0.0%  0.0%  P16..4: 10.7%  0.4%  3.6%  0.0%  0.0%    skip:85.2%\n[libx264 @ 0000024304a9ca80] mb B  I16..4:  0.0%  0.0%  0.0%  B16..8:  9.5%  0.0%  0.0%  direct: 0.0%  skip:90.5%  L0: 8.0% L1:91.9% BI: 0.0%\n[libx264 @ 0000024304a9ca80] 8x8 transform intra:66.2% inter:84.5%\n[libx264 @ 0000024304a9ca80] direct mvs  spatial:97.8% temporal:2.2%\n[libx264 @ 0000024304a9ca80] coded y,uvDC,uvAC intra: 44.4% 73.2% 36.7% inter: 0.2% 1.1% 0.1%\n[libx264 @ 0000024304a9ca80] i16 v,h,dc,p: 29% 16%  6% 49%\n[libx264 @ 0000024304a9ca80] i8 v,h,dc,ddl,ddr,vr,hd,vl,hu:  6%  4%  3% 12% 18% 17% 15% 12% 13%\n[libx264 @ 0000024304a9ca80] i4 v,h,dc,ddl,ddr,vr,hd,vl,hu:  8%  3%  1% 13% 18% 17% 15% 11% 13%\n[libx264 @ 0000024304a9ca80] i8c dc,h,v,p: 38% 15% 20% 27%\n[libx264 @ 0000024304a9ca80] Weighted P-Frames: Y:0.0% UV:0.0%\n[libx264 @ 0000024304a9ca80] ref P L0: 67.1% 21.3%  7.1%  2.2%  2.3%\n[libx264 @ 0000024304a9ca80] ref B L0: 92.6%  5.0%  2.0%  0.4%\n[libx264 @ 0000024304a9ca80] ref B L1: 99.1%  0.9%\n[libx264 @ 0000024304a9ca80] kb/s:1235.53\n",
  "seconds": 17.103770971298218,
  "probe_out": {}
}